<svg xmlns="http://www.w3.org/2000/svg" width="24.341" height="24.341" viewBox="0 0 24.341 24.341"><defs><style>.a{fill:#e0f1fe;opacity:0;}.b,.c{fill:#0075cb;}.c{stroke:#0075cb;stroke-width:0.7px;}</style></defs><rect class="a" width="24.341" height="24.341" rx="4"/><g transform="translate(7.194 2.108)"><rect class="b" width="14.604" height="4.9" rx="1" transform="translate(-1.002 11.862)"/><rect class="b" width="9.604" height="3.9" rx="1" transform="translate(3.998 4.861)"/><g transform="translate(-8.684 1.5)"><path class="c" d="M.506,3.881H2.868V6.243a.506.506,0,0,0,1.012,0V3.881H6.243a.506.506,0,0,0,0-1.012H3.881V.506a.506.506,0,0,0-1.012,0V2.868H.506A.5.5,0,0,0,0,3.374.508.508,0,0,0,.506,3.881Z" transform="translate(4.033 1.861)"/></g></g></svg>