<svg xmlns="http://www.w3.org/2000/svg" width="22.902" height="22.904" viewBox="0 0 22.902 22.904">
  <g id="Group_61853" data-name="Group 61853" transform="translate(-553.368 -513.869)">
    <path id="Path_58474" data-name="Path 58474" d="M566.206,515.256a11.453,11.453,0,0,1,8.944,18.6h0a3.3,3.3,0,0,0,1.624,4.131.091.091,0,0,1-.046.169H566.206a11.452,11.452,0,0,1,0-22.9Z" transform="translate(-1.387 -1.387)" fill="#dadada"/>
    <circle id="Ellipse_3703" data-name="Ellipse 3703" cx="8.943" cy="8.943" r="8.943" transform="translate(555.879 516.38)" fill="#fff"/>
    <g id="Group_61836" data-name="Group 61836" transform="translate(561.074 519.964)">
      <path id="Path_58475" data-name="Path 58475" d="M1160.638,976.744h-2.082a.275.275,0,0,1-.259-.288h0a3.939,3.939,0,0,1,.15-1.2,2.726,2.726,0,0,1,.446-.839,14.4,14.4,0,0,1,1.332-1.336,1.355,1.355,0,0,0,.552-.918.9.9,0,0,0-.222-.649.888.888,0,0,0-.671-.231,1.025,1.025,0,0,0-.8.357,1.91,1.91,0,0,0-.371.973.264.264,0,0,1-.286.237l-2.136-.294a.284.284,0,0,1-.224-.328,4.1,4.1,0,0,1,1.028-2.322,3.7,3.7,0,0,1,2.831-.99,3.873,3.873,0,0,1,2.4.691,2.961,2.961,0,0,1,1.24,2.489,2.609,2.609,0,0,1-.32,1.245,5.894,5.894,0,0,1-1.308,1.465,3.749,3.749,0,0,0-.869.975,1.918,1.918,0,0,0-.171.7A.272.272,0,0,1,1160.638,976.744Z" transform="translate(-1156.063 -968.919)" fill="#444" stroke="#fff" stroke-width="0.5"/>
      <ellipse id="Ellipse_3704" data-name="Ellipse 3704" cx="1.389" cy="1.325" rx="1.389" ry="1.325" transform="translate(2.185 8.372)" fill="#444" stroke="#fff" stroke-width="0.5"/>
    </g>
  </g>
</svg>
