<svg xmlns="http://www.w3.org/2000/svg" id="ic_date-formate" width="24" height="24" viewBox="0 0 24 24">
    <defs>
        <style>
            .cls-1{fill:none}.cls-2{fill:#444}
        </style>
    </defs>
    <path id="Rectangle" d="M0 0h24v24H0z" class="cls-1"/>
    <path id="Shape" d="M12.444 15.556H1.555A1.557 1.557 0 0 1 0 14L.008 3.111a1.553 1.553 0 0 1 1.547-1.556h.778V0h1.556v1.555h6.223V0h1.555v1.555h.778A1.558 1.558 0 0 1 14 3.111V14a1.557 1.557 0 0 1-1.556 1.556zM1.555 4.667V14h10.889V4.667zM8.111 8.5h-5v-2h5v2z" class="cls-2" transform="translate(5 4)"/>
</svg>
