<svg xmlns="http://www.w3.org/2000/svg" width="24" height="24" viewBox="0 0 24 24">
  <g id="ic_font" transform="translate(-39 -54)">
    <rect id="Rectangle" width="24" height="24" rx="5" transform="translate(39 54)" fill="rgba(255,255,255,0)"/>
    <g id="text-font" transform="translate(43.087 -21.008)">
      <path id="Path_46370" data-name="Path 46370" d="M7.066,81.984a1.39,1.39,0,0,0-1.328-.979H4.23a1.391,1.391,0,0,0-1.33.984l-2.842,9.3a1.333,1.333,0,1,0,2.559.746L3.2,89.929H6.639l.629,2.093a1.39,1.39,0,1,0,2.659-.813ZM3.593,87.9,4.3,85.351c.2-.695.375-1.6.553-2.316h.034c.179.713.394,1.6.606,2.316L6.247,87.9Z" transform="translate(0 0)" fill="#444"/>
      <path id="Path_46371" data-name="Path 46371" d="M322.848,213.267v-2.48c0-1.677-.759-3.077-3.138-3.077a6.462,6.462,0,0,0-2.153.353.715.715,0,0,0-.448.87l.007.024a.728.728,0,0,0,.932.489,4.065,4.065,0,0,1,1.269-.219c1.094,0,1.3.54,1.3.919v.1c-2.524-.015-4.187.875-4.187,2.727a2.186,2.186,0,0,0,2.305,2.188,2.571,2.571,0,0,0,2.042-.876h.043l.057.312a.493.493,0,0,0,.484.4h1.034a.493.493,0,0,0,.491-.53C322.859,214.122,322.848,213.7,322.848,213.267Zm-2.16-.861a1.557,1.557,0,0,1-.044.379,1.211,1.211,0,0,1-1.152.817.8.8,0,0,1-.875-.846c0-.861.9-1.138,2.071-1.123Z" transform="translate(-306.062 -122.153)" fill="#999"/>
    </g>
  </g>
</svg>

