<svg xmlns="http://www.w3.org/2000/svg" xmlns:xlink="http://www.w3.org/1999/xlink" width="211" height="196" viewBox="0 0 211 196"><defs><style>.a{fill:none;}.b,.c,.i{fill:#fff;}.b{stroke:#707070;stroke-width:1.5px;}.d{fill:#707070;}.e{fill:#c2cbd1;}.f,.h{fill:#98d6b1;}.g{fill:#ffd19b;}.h,.i,.j{fill-rule:evenodd;}.i{stroke:#eee;}.j{fill:#46a879;}.k{stroke:none;}.l{filter:url(#a);}</style><filter id="a" x="120.319" y="1.855" width="61.438" height="61.438" filterUnits="userSpaceOnUse"><feOffset dx="3" dy="3" input="SourceAlpha"/><feGaussianBlur stdDeviation="3" result="b"/><feFlood flood-opacity="0.102"/><feComposite operator="in" in2="b"/><feComposite in="SourceGraphic"/></filter></defs><g transform="translate(-1098 -520)"><rect class="a" width="211" height="196" transform="translate(1098 520)"/><g transform="translate(392.436 -3235.992)"><g transform="translate(722.756 3785.565)"><g class="b" transform="translate(49.549 3.229)"><rect class="k" width="83.4" height="103.023" rx="5"/><rect class="a" x="0.75" y="0.75" width="81.9" height="101.523" rx="4.25"/></g><path class="c" d="M0,2.7C3.3,1.888,29.063,0,29.063,0l3.194,26.014-2.9.319L8.09,20.19.514,6.883Z" transform="translate(104.224 0) rotate(7)"/><path class="c" d="M116.408,103.031c1.7-.419,16.406-3.339,16.406-3.339l3.314,24.29-19.72,10.412Z" transform="translate(-66.953 -63.842)"/><g transform="translate(89.148 44.648) rotate(94)"><g transform="translate(0 0)"><path class="d" d="M67.926,0,85.357,16.634c4.6,5.711,2.533,11.347.813,13.549L53.542,63.614a6.693,6.693,0,0,1-5.973,2.14l-27.6-.294c-6.393-.471-8.242-4.493-8.317-4.664L.4,34.843c-1.542-5.917,1.829-8.957,1.974-9.083.123-.128,1.862-1.772,6.1-2.779C13.3,21.837,17.1,27.27,17.256,27.5l7.907,17.786,18.023-.233.033,2.6-19.739.255L14.995,28.773h0c-.045-.02-2.908-3.972-5.915-3.26A11.529,11.529,0,0,0,4.144,27.67C4.01,27.794,1.8,29.882,2.858,34L14.04,59.75c.043.089,1.369,2.762,6.043,3.108L48,63.185a4.083,4.083,0,0,0,3.655-1.373L84.212,28.47c.052-.082,3.519-4.739-.77-10.077L66.126,1.885Z" transform="translate(0)"/></g><g transform="translate(54.787 27.254)"><rect class="e" width="57.115" height="19.438" rx="0.875" transform="translate(0 40.987) rotate(-45.859)"/></g></g><g transform="translate(66.617 52.195)"><g transform="translate(0.002 30.304)"><rect class="f" width="49.1" height="5.5"/></g><g transform="translate(0 15.152)"><rect class="f" width="49.1" height="5.5"/></g><g transform="translate(13.15 0)"><rect class="f" width="35.948" height="5.5"/></g></g><g transform="translate(15.946 95.169)"><g transform="translate(0 0.989)"><rect class="f" width="0.651" height="4.529" transform="translate(0 0.595) rotate(-66.13)"/></g><g transform="translate(0.989 0)"><rect class="f" width="4.529" height="0.651" transform="translate(0 4.141) rotate(-66.13)"/></g></g><g transform="translate(18.894 11.274)"><g transform="translate(59.778 127.287)"><path class="g" d="M305.141,432.741l.2-4.675,3.962-2.489-4.386-1.631-1.143-4.538-2.907,3.667-4.669-.315,2.59,3.9L297.043,431l4.507-1.258Z" transform="translate(-296.195 -419.407)"/></g><g transform="translate(128.135 38.468)"><path class="g" d="M141.477,195.318l2.86,4.305-1.925,4.8,4.977-1.39,3.966,3.312.217-5.163,4.376-2.749-4.844-1.8-1.263-5.012-3.21,4.05Zm5.453,1.021,2.6-3.284,1.024,4.064,3.928,1.46-3.549,2.229L150.761,205l-3.217-2.686-4.036,1.127,1.561-3.889-2.32-3.491Z" transform="translate(-141.477 -191.616)"/></g><g transform="translate(0 9.643)"><path class="g" d="M425.735,180.03l-3.21,4.05-5.157-.348,2.86,4.306-1.923,4.8,4.977-1.391,3.967,3.314.215-5.164,4.377-2.749-4.844-1.8Zm-2.913,4.722,2.6-3.284,1.024,4.064,3.928,1.46-3.55,2.23-.175,4.187-3.217-2.686-4.036,1.127,1.56-3.889-2.32-3.491Z" transform="translate(-417.368 -180.03)"/></g><g transform="translate(134.016 68.249)"><path class="f" d="M145.165,264.27a4.03,4.03,0,1,0,5.316,2.053A4.033,4.033,0,0,0,145.165,264.27Zm2.734,6.179a2.727,2.727,0,1,1,1.391-3.6A2.731,2.731,0,0,1,147.9,270.449Z" transform="translate(-142.766 -263.925)"/></g><g transform="translate(84.239 84.646)"><path class="f" d="M176.983,304.9a13.469,13.469,0,0,0-2.757,1.676l.794,1.034a12.01,12.01,0,0,1,2.49-1.519,12.261,12.261,0,1,1,7.458,23.215l-.4.083-.1.395a19.318,19.318,0,0,1-25.256,13.468l-.385-.138-.292.289a13.782,13.782,0,0,1-22.339-4.215l-1.191.527a15.082,15.082,0,0,0,24.153,4.9,20.618,20.618,0,0,0,26.469-14.118,13.563,13.563,0,1,0-8.645-25.593Z" transform="translate(-135.006 -303.74)"/></g><g transform="translate(135.371 19.966)"><g transform="translate(0 0.988)"><rect class="f" width="0.651" height="4.528" transform="translate(0.264 2.428) rotate(-113.87)"/></g><g transform="translate(0.988 0)"><rect class="f" width="4.528" height="0.651" transform="translate(1.832 4.404) rotate(-113.87)"/></g></g><g transform="translate(-23.848 -10)"><g transform="translate(11.252 73.037)"><path class="h" d="M116.216,277.384l.705-.676-1.091-1.154-.73.65Z" transform="translate(-115.101 -275.554)"/></g><g transform="translate(13.252 75.107)"><path class="h" d="M121.14,282.385l.66-.72a10.8,10.8,0,0,1-1.159-1.083l-.685.7A11.227,11.227,0,0,0,121.14,282.385Z" transform="translate(-119.956 -280.581)"/></g><g transform="translate(15.403 77.008)"><path class="h" d="M126.408,287l.612-.761-1.2-1.039-.639.739Z" transform="translate(-125.18 -285.197)"/></g><g transform="translate(6.118 66.133)"><path class="h" d="M103.495,260.665l.824-.524-.84-1.347-.843.494Z" transform="translate(-102.636 -258.793)"/></g><g transform="translate(7.659 68.55)"><path class="h" d="M107.328,266.523l.787-.577a12.4,12.4,0,0,1-.93-1.284l-.808.549A12.867,12.867,0,0,0,107.328,266.523Z" transform="translate(-106.377 -264.661)"/></g><g transform="translate(9.39 70.825)"><path class="h" d="M111.573,272.07l.748-.628-.969-1.258-.771.6Z" transform="translate(-110.581 -270.184)"/></g><g transform="translate(2.466 58.379)"><path class="h" d="M94.344,241.8l.911-.353-.562-1.485-.923.319Z" transform="translate(-93.768 -239.967)"/></g><g transform="translate(3.499 61.043)"><path class="h" d="M96.946,248.288l.886-.411a12.043,12.043,0,0,1-.657-1.444l-.9.379A12.383,12.383,0,0,0,96.946,248.288Z" transform="translate(-96.276 -246.433)"/></g><g transform="translate(4.735 63.608)"><path class="h" d="M100,254.553l.857-.468-.7-1.423-.874.437Z" transform="translate(-99.279 -252.661)"/></g><g transform="translate(0.427 50.076)"><path class="h" d="M89.094,221.542l.962-.168-.27-1.566-.967.134Z" transform="translate(-88.819 -219.808)"/></g><g transform="translate(0.921 52.884)"><path class="h" d="M90.378,228.4l.949-.231a10.585,10.585,0,0,1-.352-1.547l-.957.2A11.015,11.015,0,0,0,90.378,228.4Z" transform="translate(-90.018 -226.624)"/></g><g transform="translate(1.618 55.637)"><path class="h" d="M92.137,235.132l.932-.292-.418-1.532-.942.258Z" transform="translate(-91.709 -233.308)"/></g><g transform="translate(0.041 41.487)"><path class="h" d="M87.88,200.576l.976.021.032-1.588-.975-.057Z" transform="translate(-87.88 -198.953)"/></g><g transform="translate(0.001 44.391)"><path class="h" d="M87.833,207.632l.976-.042A10.512,10.512,0,0,1,88.775,206l-.977.007A11.037,11.037,0,0,0,87.833,207.632Z" transform="translate(-87.784 -206.004)"/></g><g transform="translate(0.146 47.224)"><path class="h" d="M88.257,214.571l.971-.105-.119-1.583-.974.07Z" transform="translate(-88.135 -212.882)"/></g><g transform="translate(1.084 32.86)"><path class="h" d="M90.414,179.594l.954.212.336-1.552-.945-.246Z" transform="translate(-90.414 -178.008)"/></g><g transform="translate(0.52 35.706)"><path class="h" d="M89.043,186.513l.965.148a12.178,12.178,0,0,1,.285-1.56l-.959-.184A12.53,12.53,0,0,0,89.043,186.513Z" transform="translate(-89.043 -184.917)"/></g><g transform="translate(0.182 38.572)"><path class="h" d="M88.224,193.487l.973.086L89.382,192l-.97-.121Z" transform="translate(-88.224 -191.874)"/></g><g transform="translate(3.806 24.668)"><path class="h" d="M97.023,159.606l.893.394.634-1.456-.879-.427Z" transform="translate(-97.023 -158.117)"/></g><g transform="translate(2.688 27.338)"><path class="h" d="M94.308,166.105l.917.335a12.64,12.64,0,0,1,.591-1.472l-.9-.368A13,13,0,0,0,94.308,166.105Z" transform="translate(-94.308 -164.6)"/></g><g transform="translate(1.798 30.06)"><path class="h" d="M92.147,172.755l.937.274.487-1.511-.927-.309Z" transform="translate(-92.147 -171.209)"/></g><g transform="translate(8.101 17.234)"><path class="h" d="M107.452,141.4l.8.561.912-1.3-.779-.59Z" transform="translate(-107.452 -140.069)"/></g><g transform="translate(6.482 19.617)"><path class="h" d="M103.519,147.215l.834.508a10.878,10.878,0,0,1,.861-1.332l-.815-.539A11.35,11.35,0,0,0,103.519,147.215Z" transform="translate(-103.519 -145.853)"/></g><g transform="translate(5.063 22.094)"><path class="h" d="M100.073,153.285l.866.453.776-1.385-.848-.484Z" transform="translate(-100.073 -151.869)"/></g><g transform="translate(13.781 10.825)"><path class="h" d="M121.241,125.622l.676.705,1.155-1.09-.65-.73Z" transform="translate(-121.241 -124.507)"/></g><g transform="translate(11.737 12.825)"><path class="h" d="M116.279,130.546l.72.66a10.761,10.761,0,0,1,1.084-1.159l-.7-.685A11.233,11.233,0,0,0,116.279,130.546Z" transform="translate(-116.279 -129.362)"/></g><g transform="translate(9.839 14.976)"><path class="h" d="M111.67,135.813l.761.612,1.039-1.2-.739-.639Z" transform="translate(-111.67 -134.585)"/></g><g transform="translate(20.642 5.691)"><path class="h" d="M137.9,112.9l.524.824,1.347-.84-.493-.843Z" transform="translate(-137.901 -112.042)"/></g><g transform="translate(18.235 7.232)"><path class="h" d="M132.056,116.734l.578.788a12.457,12.457,0,0,1,1.285-.93l-.549-.809A12.981,12.981,0,0,0,132.056,116.734Z" transform="translate(-132.056 -115.783)"/></g><g transform="translate(15.937 8.963)"><path class="h" d="M126.476,120.978l.628.748,1.258-.969-.6-.771Z" transform="translate(-126.476 -119.987)"/></g><g transform="translate(28.43 2.039)"><path class="h" d="M156.81,103.75l.353.911,1.484-.563-.319-.923Z" transform="translate(-156.81 -103.174)"/></g><g transform="translate(25.749 3.071)"><path class="h" d="M150.3,106.351l.411.886a11.822,11.822,0,0,1,1.444-.657l-.379-.9A12.544,12.544,0,0,0,150.3,106.351Z" transform="translate(-150.3 -105.681)"/></g><g transform="translate(23.148 4.309)"><path class="h" d="M143.984,109.4l.468.858,1.424-.7-.437-.874Z" transform="translate(-143.984 -108.685)"/></g><g transform="translate(36.837 0)"><path class="h" d="M177.22,98.5l.169.962,1.565-.27-.133-.967Z" transform="translate(-177.22 -98.224)"/></g><g transform="translate(33.986 0.494)"><path class="h" d="M170.3,99.784l.23.949a10.539,10.539,0,0,1,1.547-.352l-.2-.957A10.948,10.948,0,0,0,170.3,99.784Z" transform="translate(-170.3 -99.424)"/></g><g transform="translate(31.186 1.19)"><path class="h" d="M163.5,101.542l.292.932,1.532-.418-.258-.942Z" transform="translate(-163.501 -101.114)"/></g></g></g><g transform="translate(79.772 38.266)"><g transform="translate(0 0)"><rect class="f" width="35.948" height="5.5"/></g></g><g transform="translate(79.772 24.438)"><g transform="translate(0 0.001)"><rect class="f" width="35.948" height="5.5"/></g></g></g><g transform="translate(832.384 3764.348)"><g class="l" transform="matrix(1, 0, 0, 1, -126.82, -8.36)"><path class="i" d="M516.267,399.049a21.219,21.219,0,1,1-21.219,21.219,21.219,21.219,0,0,1,21.219-21.219Z" transform="translate(-368.23 -390.69)"/></g><path class="j" d="M559.847,482.094l9.531-9.532a1.766,1.766,0,0,1,2.5,2.5L561.1,485.84l-.033.032-.032.03-.034.03-.034.028-.035.028-.036.027-.036.025-.037.025-.037.023-.038.023-.038.022-.038.021-.039.02-.039.018-.04.018-.039.016-.04.016-.041.015-.041.014-.041.013-.041.012-.041.01-.041.009-.042.009-.042.007-.041.006-.044.006-.041,0-.042,0-.044,0-.041,0h-.043l-.085,0-.043,0-.042,0-.042,0-.085-.012c-.042-.007-.083-.016-.124-.026l-.042-.011-.041-.011-.042-.013-.04-.013-.04-.014-.04-.016-.041-.017-.039-.017-.039-.018-.039-.02-.038-.021-.038-.021-.038-.023-.036-.023-.037-.025-.035-.025-.037-.027-.034-.027-.034-.029-.034-.03-.033-.03-.033-.032L553.16,480.4a1.766,1.766,0,1,1,2.5-2.5l4.191,4.191Z" transform="translate(-540.952 -457.984)"/></g></g></g></svg>