<?xml version="1.0" encoding="UTF-8"?>
<svg width="20px" height="20px" viewBox="0 0 20 20" version="1.1" xmlns="http://www.w3.org/2000/svg" xmlns:xlink="http://www.w3.org/1999/xlink">
    <!-- Generator: Sketch 55.2 (78181) - https://sketchapp.com -->
    <title>Group 35</title>
    <desc>Created with Sketch.</desc>
    <g id="Page-1" stroke="none" stroke-width="1" fill="none" fill-rule="evenodd">
        <g id="01_Avoided-word-hover-Copy-6" transform="translate(-106.000000, -754.000000)" fill="#0075CB">
            <g id="Group-35" transform="translate(106.000000, 754.000000)">
                <circle id="Oval" opacity="0.0959123884" cx="17.7192982" cy="2.28070175" r="2.28070175"></circle>
                <circle id="Oval-Copy-4" opacity="0.0959123884" cx="3.85964912" cy="15.2631579" r="3.85964912"></circle>
                <rect id="Rectangle" opacity="0.132138207" x="2.45614035" y="3.50877193" width="11.9298246" height="1.05263158" rx="0.526315789"></rect>
                <rect id="Rectangle" opacity="0.132138207" x="15.0877193" y="14.7368421" width="2.80701754" height="1.05263158" rx="0.526315789"></rect>
                <g id="Group-38" transform="translate(1.403509, 1.403509)">
                    <g id="feature" fill-rule="nonzero">
                        <path d="M0,14.7868168 C0,15.5291822 0.603879394,16.1310729 1.3486977,16.1310729 L16.1843724,16.1310729 C16.9291907,16.1310729 17.5330701,15.5291822 17.5330701,14.7868168 L17.5330701,1.34425607 C17.5330701,0.601890657 16.9291907,0 16.1843724,0 L1.3486977,0 C0.603879394,0 0,0.601890657 0,1.34425607 L0,14.7868168 Z M1.29649123,1.73285486 C1.29649123,1.3813435 1.57625685,1.09649123 1.92149123,1.09649123 L15.6714912,1.09649123 C16.0167256,1.09649123 16.2964912,1.3813435 16.2964912,1.73285486 L16.2964912,14.4601276 C16.2964912,14.811639 16.0167256,15.0964912 15.6714912,15.0964912 L1.92149123,15.0964912 C1.57625685,15.0964912 1.29649123,14.811639 1.29649123,14.4601276 L1.29649123,1.73285486 Z" id="Combined-Shape"></path>
                    </g>
                    <rect id="Rectangle-Copy-68" x="2.35948728" y="3.62398785" width="12" height="1" rx="0.5"></rect>
                </g>
                <path d="M7.01952556,11.6330975 L9.42248228,9.05774675 L9.42248228,15.4057862 C9.42248228,15.7254557 9.68499479,15.9871038 10.0057206,15.9871038 C10.3266307,15.9871038 10.588959,15.7254557 10.588959,15.4057862 L10.588959,9.05774675 L12.9919157,11.6330975 C13.1085265,11.7550162 13.2603232,11.819097 13.4176465,11.819097 C13.5576532,11.819097 13.7035549,11.7667675 13.8142707,11.6621083 C14.0476766,11.4412223 14.0651774,11.0749151 13.8435616,10.8424615 L10.4257406,7.18599958 C10.3148406,7.0697728 10.1632281,7 10,7 C9.83660729,7 9.68499479,7.0697728 9.57427899,7.18599958 L6.15645809,10.8424615 C5.93484224,11.0749151 5.95234309,11.4469143 6.18556471,11.6621083 C6.43057642,11.8829943 6.79790971,11.8655511 7.01952556,11.6330975 Z" id="Path" stroke="#0075CB" stroke-width="0.2" fill-rule="nonzero"></path>
                <rect id="Rectangle-Copy-69" x="14.3004898" y="14.1471829" width="2.33054962" height="1" rx="0.5"></rect>
                <rect id="Rectangle-Copy-70" x="3.80701754" y="14.0877193" width="2.33054962" height="1" rx="0.5"></rect>
                <ellipse id="Oval" cx="4.34563346" cy="4.03812416" rx="1" ry="1"></ellipse>
                <ellipse id="Oval-Copy-9" cx="5.7266999" cy="4.03812416" rx="1" ry="1"></ellipse>
                <ellipse id="Oval-Copy-10" cx="7.10776634" cy="4.03812416" rx="1" ry="1"></ellipse>
            </g>
        </g>
    </g>
</svg>